STARTFONT 2.1
FONT -gbdfed-monument-Normal-R-Normal--12-84-20-20-M-11-FontSpecific-0
SIZE 7 20 20
FONTBOUNDINGBOX 17 10 0 0
STARTPROPERTIES 11
POINT_SIZE 70
PIXEL_SIZE 12
RESOLUTION_X 20
RESOLUTION_Y 20
FONT_ASCENT 10
FONT_DESCENT 2
AVERAGE_WIDTH 10
SPACING "P"
FAMILY_NAME "monument"
WEIGHT_NAME "Normal"
_GBDFED_INFO "Edited with gbdfed 1.6."
ENDPROPERTIES
CHARS 64
STARTCHAR char32
ENCODING 32
SWIDTH 4114 0
DWIDTH 9 0
BBX 0 0 0 0
BITMAP
ENDCHAR
STARTCHAR char33
ENCODING 33
SWIDTH 4114 0
DWIDTH 9 0
BBX 2 10 2 0
BITMAP
C0
C0
C0
C0
C0
C0
C0
00
C0
C0
ENDCHAR
STARTCHAR char34
ENCODING 34
SWIDTH 4114 0
DWIDTH 9 0
BBX 4 5 1 5
BITMAP
60
60
90
90
60
ENDCHAR
STARTCHAR char35
ENCODING 35
SWIDTH 8228 0
DWIDTH 18 0
BBX 15 10 1 0
BITMAP
0180
0180
0180
2004
13C8
07E0
07E0
0FF0
EFF6
0FF0
ENDCHAR
STARTCHAR char35
ENCODING 36
SWIDTH 8228 0
DWIDTH 18 0
BBX 16 10 0 0
BITMAP
0020
0020
0421
0202
00F0
3C38
3C38
FFDB
FFE8
FFE0
ENDCHAR
STARTCHAR char37
ENCODING 37
SWIDTH 4114 0
DWIDTH 9 0
BBX 7 10 0 0
BITMAP
E0
E0
E6
0E
1C
38
38
F0
E6
06
ENDCHAR
STARTCHAR char35
ENCODING 38
SWIDTH 8228 0
DWIDTH 18 0
BBX 16 10 0 0
BITMAP
0700
0700
0FE0
03FE
3C3F
FFDF
FFDF
FFEF
FFEE
3FC0
ENDCHAR
STARTCHAR char39
ENCODING 39
SWIDTH 8228 0
DWIDTH 18 0
BBX 16 10 0 0
BITMAP
F1E3
F1E3
0E1C
F1E3
0E1C
F1E3
F1E3
0E1C
F1E3
0E1C
ENDCHAR
STARTCHAR char35
ENCODING 40
SWIDTH 8228 0
DWIDTH 18 0
BBX 16 10 0 0
BITMAP
03F0
03F0
3C3C
FFDF
FFEF
0000
0000
3DFE
0000
3FDE
ENDCHAR
STARTCHAR char35
ENCODING 41
SWIDTH 8228 0
DWIDTH 18 0
BBX 16 10 0 0
BITMAP
03F0
03F0
3C3C
FFDF
FFEF
0000
0000
1224
24C8
C910
ENDCHAR
STARTCHAR char42
ENCODING 42
SWIDTH 4114 0
DWIDTH 9 0
BBX 7 8 0 1
BITMAP
10
10
D4
38
FE
38
D4
10
ENDCHAR
STARTCHAR char35
ENCODING 43
SWIDTH 8228 0
DWIDTH 18 0
BBX 16 10 0 0
BITMAP
03F2
03F2
3FF4
FFEC
FFDF
0006
0006
122C
24C8
C910
ENDCHAR
STARTCHAR char35
ENCODING 44
SWIDTH 11314 0
DWIDTH 25 0
BBX 16 10 0 0
BITMAP
1E00
1E00
3FF0
FFC0
FFD2
3F0C
3F0C
003F
000C
0012
ENDCHAR
STARTCHAR char45
ENCODING 45
SWIDTH 4114 0
DWIDTH 9 0
BBX 7 2 0 4
BITMAP
FE
FE
ENDCHAR
STARTCHAR char46
ENCODING 46
SWIDTH 4114 0
DWIDTH 9 0
BBX 2 2 2 0
BITMAP
C0
C0
ENDCHAR
STARTCHAR char47
ENCODING 47
SWIDTH 4114 0
DWIDTH 9 0
BBX 6 10 0 0
BITMAP
0C
0C
0C
1C
18
38
38
30
F0
E0
ENDCHAR
STARTCHAR char48
ENCODING 48
SWIDTH 4114 0
DWIDTH 9 0
BBX 7 10 0 0
BITMAP
FE
FE
FE
E6
E6
E6
E6
E6
FE
FE
ENDCHAR
STARTCHAR char49
ENCODING 49
SWIDTH 4114 0
DWIDTH 9 0
BBX 7 10 0 0
BITMAP
F8
F8
F8
18
18
18
18
18
FE
FE
ENDCHAR
STARTCHAR char50
ENCODING 50
SWIDTH 4114 0
DWIDTH 9 0
BBX 7 10 0 0
BITMAP
FE
FE
FE
06
FE
FE
FE
E0
FE
FE
ENDCHAR
STARTCHAR char51
ENCODING 51
SWIDTH 4114 0
DWIDTH 9 0
BBX 7 10 0 0
BITMAP
FE
FE
FE
06
3E
3E
3E
06
FE
FE
ENDCHAR
STARTCHAR char52
ENCODING 52
SWIDTH 4114 0
DWIDTH 9 0
BBX 7 10 0 0
BITMAP
E6
E6
E6
E6
FE
FE
FE
06
06
06
ENDCHAR
STARTCHAR char53
ENCODING 53
SWIDTH 4114 0
DWIDTH 9 0
BBX 7 10 0 0
BITMAP
FE
FE
FE
E0
FE
FE
FE
06
FE
FE
ENDCHAR
STARTCHAR char54
ENCODING 54
SWIDTH 4114 0
DWIDTH 9 0
BBX 7 10 0 0
BITMAP
FE
FE
FE
E0
FE
FE
FE
E6
FE
FE
ENDCHAR
STARTCHAR char55
ENCODING 55
SWIDTH 4114 0
DWIDTH 9 0
BBX 7 10 0 0
BITMAP
FE
FE
FE
06
06
06
06
06
06
06
ENDCHAR
STARTCHAR char56
ENCODING 56
SWIDTH 4114 0
DWIDTH 9 0
BBX 7 10 0 0
BITMAP
FE
FE
FE
E6
FE
FE
FE
E6
FE
FE
ENDCHAR
STARTCHAR char57
ENCODING 57
SWIDTH 4114 0
DWIDTH 9 0
BBX 7 10 0 0
BITMAP
FE
FE
FE
E6
FE
FE
FE
06
FE
FE
ENDCHAR
STARTCHAR char58
ENCODING 58
SWIDTH 4114 0
DWIDTH 9 0
BBX 2 7 2 0
BITMAP
C0
C0
C0
00
00
C0
C0
ENDCHAR
STARTCHAR char59
ENCODING 59
SWIDTH 4114 0
DWIDTH 9 0
BBX 7 10 0 0
BITMAP
18
18
3C
C2
C2
C2
C2
C2
C2
FE
ENDCHAR
STARTCHAR char59
ENCODING 60
SWIDTH 4114 0
DWIDTH 9 0
BBX 7 10 0 0
BITMAP
18
18
3C
C2
C2
C2
C2
C2
FE
FE
ENDCHAR
STARTCHAR char59
ENCODING 61
SWIDTH 4114 0
DWIDTH 9 0
BBX 7 10 0 0
BITMAP
18
18
3C
C2
C2
C2
C2
FE
FE
FE
ENDCHAR
STARTCHAR char59
ENCODING 62
SWIDTH 4114 0
DWIDTH 9 0
BBX 7 10 0 0
BITMAP
18
18
3C
C2
C2
FE
FE
FE
FE
FE
ENDCHAR
STARTCHAR char59
ENCODING 63
SWIDTH 4114 0
DWIDTH 9 0
BBX 7 10 0 0
BITMAP
18
18
3C
C2
FE
FE
FE
FE
FE
FE
ENDCHAR
STARTCHAR char59
ENCODING 64
SWIDTH 4114 0
DWIDTH 9 0
BBX 7 10 0 0
BITMAP
18
18
3C
FE
FE
FE
FE
FE
FE
FE
ENDCHAR
STARTCHAR char65
ENCODING 65
SWIDTH 4114 0
DWIDTH 9 0
BBX 7 10 0 0
BITMAP
3C
3C
FE
E6
E6
FE
FE
FE
E6
E6
ENDCHAR
STARTCHAR char66
ENCODING 66
SWIDTH 4114 0
DWIDTH 9 0
BBX 7 10 0 0
BITMAP
FC
FC
FE
E6
FE
FE
FE
E6
FE
FC
ENDCHAR
STARTCHAR char67
ENCODING 67
SWIDTH 4114 0
DWIDTH 9 0
BBX 7 10 0 0
BITMAP
3E
3E
FE
E0
E0
E0
E0
E0
FE
3E
ENDCHAR
STARTCHAR char68
ENCODING 68
SWIDTH 4114 0
DWIDTH 9 0
BBX 7 10 0 0
BITMAP
FC
FC
FE
E6
E6
E6
E6
E6
FE
FC
ENDCHAR
STARTCHAR char69
ENCODING 69
SWIDTH 4114 0
DWIDTH 9 0
BBX 7 10 0 0
BITMAP
FE
FE
FE
E0
FC
FC
FC
E0
FE
FE
ENDCHAR
STARTCHAR char70
ENCODING 70
SWIDTH 4114 0
DWIDTH 9 0
BBX 7 10 0 0
BITMAP
3E
3E
FE
E0
FC
FC
FC
E0
E0
E0
ENDCHAR
STARTCHAR char71
ENCODING 71
SWIDTH 4114 0
DWIDTH 9 0
BBX 7 10 0 0
BITMAP
3E
3E
FE
E0
EE
EE
EE
E6
FE
3C
ENDCHAR
STARTCHAR char72
ENCODING 72
SWIDTH 4114 0
DWIDTH 9 0
BBX 7 10 0 0
BITMAP
E6
E6
E6
E6
FE
FE
FE
E6
E6
E6
ENDCHAR
STARTCHAR char73
ENCODING 73
SWIDTH 4114 0
DWIDTH 9 0
BBX 7 10 0 0
BITMAP
FE
FE
FE
18
18
18
18
18
FE
FE
ENDCHAR
STARTCHAR char74
ENCODING 74
SWIDTH 4114 0
DWIDTH 9 0
BBX 7 10 0 0
BITMAP
FE
FE
FE
06
06
E6
E6
E6
FE
3E
ENDCHAR
STARTCHAR char75
ENCODING 75
SWIDTH 4114 0
DWIDTH 9 0
BBX 7 10 0 0
BITMAP
E6
E6
EE
FC
F8
FC
FC
EE
E6
E6
ENDCHAR
STARTCHAR char76
ENCODING 76
SWIDTH 4114 0
DWIDTH 9 0
BBX 7 10 0 0
BITMAP
E0
E0
E0
E0
E0
E0
E0
E0
FE
FE
ENDCHAR
STARTCHAR char77
ENCODING 77
SWIDTH 4114 0
DWIDTH 9 0
BBX 7 10 0 0
BITMAP
36
36
FE
FE
EA
EA
EA
E2
E2
E2
ENDCHAR
STARTCHAR char78
ENCODING 78
SWIDTH 4114 0
DWIDTH 9 0
BBX 7 10 0 0
BITMAP
E6
E6
F6
F6
FE
EE
EE
EE
E6
E6
ENDCHAR
STARTCHAR char79
ENCODING 79
SWIDTH 4114 0
DWIDTH 9 0
BBX 7 10 0 0
BITMAP
3C
3C
FE
E6
E6
E6
E6
E6
FE
3C
ENDCHAR
STARTCHAR char80
ENCODING 80
SWIDTH 4114 0
DWIDTH 9 0
BBX 7 10 0 0
BITMAP
FC
FC
FE
E6
FE
FC
FC
E0
E0
E0
ENDCHAR
STARTCHAR char81
ENCODING 81
SWIDTH 4114 0
DWIDTH 9 0
BBX 7 10 0 0
BITMAP
3C
3C
FE
E6
E6
E6
E6
FE
3C
0E
ENDCHAR
STARTCHAR char82
ENCODING 82
SWIDTH 4114 0
DWIDTH 9 0
BBX 7 10 0 0
BITMAP
FC
FC
FE
E6
FE
FC
FC
E6
E6
E6
ENDCHAR
STARTCHAR char83
ENCODING 83
SWIDTH 4114 0
DWIDTH 9 0
BBX 7 10 0 0
BITMAP
3E
3E
FE
E0
3C
3E
3E
06
FE
FC
ENDCHAR
STARTCHAR char84
ENCODING 84
SWIDTH 4114 0
DWIDTH 9 0
BBX 7 10 0 0
BITMAP
FE
FE
FE
18
18
18
18
18
18
18
ENDCHAR
STARTCHAR char85
ENCODING 85
SWIDTH 4114 0
DWIDTH 9 0
BBX 7 10 0 0
BITMAP
E6
E6
E6
E6
E6
E6
E6
E6
FE
3E
ENDCHAR
STARTCHAR char86
ENCODING 86
SWIDTH 4114 0
DWIDTH 9 0
BBX 7 10 0 0
BITMAP
E6
E6
E6
E6
E6
E6
E6
FE
3C
18
ENDCHAR
STARTCHAR char87
ENCODING 87
SWIDTH 4114 0
DWIDTH 9 0
BBX 7 10 0 0
BITMAP
E2
E2
E2
E2
EA
EA
EA
FE
FE
36
ENDCHAR
STARTCHAR char88
ENCODING 88
SWIDTH 4114 0
DWIDTH 9 0
BBX 7 10 0 0
BITMAP
E6
E6
E6
F6
38
1C
1C
EE
E6
E6
ENDCHAR
STARTCHAR char89
ENCODING 89
SWIDTH 4114 0
DWIDTH 9 0
BBX 7 10 0 0
BITMAP
E6
E6
E6
FE
3C
18
18
18
18
18
ENDCHAR
STARTCHAR char90
ENCODING 90
SWIDTH 4114 0
DWIDTH 9 0
BBX 7 10 0 0
BITMAP
FE
FE
FE
0E
1C
38
38
F0
FE
FE
ENDCHAR
STARTCHAR char91
ENCODING 91
SWIDTH 4114 0
DWIDTH 9 0
BBX 7 10 0 0
BITMAP
08
08
10
30
FE
0C
0C
18
10
20
ENDCHAR
STARTCHAR char92
ENCODING 92
SWIDTH 4114 0
DWIDTH 9 0
BBX 8 8 0 0
BITMAP
08
08
1C
14
36
36
FF
F7
ENDCHAR
STARTCHAR char93
ENCODING 93
SWIDTH 4114 0
DWIDTH 9 0
BBX 8 8 0 0
BITMAP
36
36
FF
FF
FF
3E
1C
08
ENDCHAR
STARTCHAR char95
ENCODING 95
SWIDTH 4114 0
DWIDTH 9 0
BBX 8 7 0 0
BITMAP
F0
F0
F8
E8
FE
C1
FF
ENDCHAR
STARTCHAR char96
ENCODING 96
SWIDTH 4114 0
DWIDTH 9 0
BBX 7 8 0 0
BITMAP
D8
D8
3C
1C
2C
F6
02
18
ENDCHAR
ENDFONT
